<?xml version="1.0" encoding="UTF-8" standalone="no"?> <svg id="Layer_1" data-name="Layer 1" xmlns="http://www.w3.org/2000/svg" viewBox="0 0 512 512"><defs><style>.cls-1{fill:#ffd18d;}.cls-2{fill:#f1c40f;}.cls-3{fill:#f39c12;}.cls-4{fill:#eaab71;}.cls-5{fill:#2ecc71;}.cls-6{fill:#27ae60;}</style></defs><title>Alms</title><path class="cls-1" d="M277.193,266.667H85.337V149.443l21.534-.11,184.071-43.851a106.616,106.616,0,0,1,75.746,10.123l64.5,35.2a53.339,53.339,0,0,1,23.966,27.019l31.8,79.541a53.184,53.184,0,0,1,3.71,19.317v32.251c0,20.689-16.922,38.1-37.6,37.727a37.839,37.839,0,0,1-25.9-10.927,36.985,36.985,0,0,1-11.13-26.4Z"/><circle class="cls-2" cx="298.667" cy="309.333" r="117.333"/><path class="cls-3" d="M298.667,224a128.022,128.022,0,0,1,116.958,75.929,117.335,117.335,0,0,0-233.915,0A128.022,128.022,0,0,1,298.667,224Z"/><path class="cls-1" d="M85.333,245.333v53.388l21.533-.055,50.521,33.709a53.256,53.256,0,0,0,29.559,8.957H319.869a21.519,21.519,0,0,0,21.464-21.717,53.312,53.312,0,0,0-53.287-52.95H211.663L170.7,245.388Z"/><path class="cls-4" d="M106.673,259.2H85.34l-.007,39.467h21.336l50.564,33.709a53.333,53.333,0,0,0,29.584,8.957H319.852a21.528,21.528,0,0,0,21.482-21.717A53.29,53.29,0,0,0,338.893,304H181.709Z"/><rect class="cls-5" x="21.333" y="117.333" width="85.333" height="213.333" rx="32" ry="32"/><path class="cls-6" d="M74.666,330.662H53.329a32,32,0,0,1-32-32v-32h85.337v32A32,32,0,0,1,74.666,330.662Z"/></svg>